{"title":"Little People Big World S12E05 720p H264-AC3 {inyd}","uid":9410383,"size":1660966042,"categoryP":"video","categoryS":"hd___tv_shows","magnet":"?xt=urn:btih:ef67e4035181ea95ec0fb05be63e9df181c42753&amp;dn=Little+People+Big+World+S12E05+720p+H264-AC3+%7Binyd%7D&amp;tr=udp%3A%2F%2Ftracker.openbittorrent.com%3A80&amp;tr=udp%3A%2F%2Fopen.demonii.com%3A1337&amp;tr=udp%3A%2F%2Ftracker.coppersurfer.tk%3A6969&amp;tr=udp%3A%2F%2Fexodus.desync.com%3A6969","seeders":0,"leechers":3,"uploader":"imPROvise","files":-1,"time":1388273191,"description":"General\nTV Show                                  : Little People Big World\nSeason                                   : 12\nEpisode                                  : 05 - A Bride and a Bulldozer\nAir Date                                 : Tuesday, Nov. 26, 2013\nFormat                                   : Matroska\nFormat version                           : Version 1\nFile size                                : 1.55 GiB\nDuration                                 : 42mn 38s\nOverall bit rate                         : 5 193 Kbps\nWriting library                          : WonderShare Matroska Muxer\n\nVideo\nID                                       : 1\nFormat                                   : AVC\nFormat/Info                              : Advanced Video Codec\nFormat profile                           : &lt;a class=&quot;__cf_email__&quot; href=&quot;/cdn-cgi/l/email-protection&quot; data-cfemail=&quot;cb89aab8aea7a2a5ae8b87f8e5fb&quot;&gt;[email&amp;#160;protected]&lt;/a&gt;&lt;script cf-hash='f9e31' type=&quot;text/javascript&quot;&gt;\n/* &lt;![CDATA[ */!function(){try{var t=&quot;currentScript&quot;in document?document.currentScript:function(){for(var t=document.getElementsByTagName(&quot;script&quot;),e=t.length;e--;)if(t[e].getAttribute(&quot;cf-hash&quot;))return t[e]}();if(t&amp;&amp;t.previousSibling){var e,r,n,i,c=t.previousSibling,a=c.getAttribute(&quot;data-cfemail&quot;);if(a){for(e=&quot;&quot;,r=parseInt(a.substr(0,2),16),n=2;a.length-n;n+=2)i=parseInt(a.substr(n,2),16)^r,e+=String.fromCharCode(i);e=document.createTextNode(e),c.parentNode.replaceChild(e,c)}}}catch(u){}}();/* ]]&gt; */&lt;/script&gt;\nFormat settings, CABAC                   : No\nFormat settings, ReFrames                : 1 frame\nCodec ID                                 : V_MS/VFW/FOURCC / X264\nCodec ID/Info                            : XiWave GNU GPL x264 MPEG-4\nDuration                                 : 42mn 38s\nBit rate                                 : 4 898 Kbps\nWidth                                    : 1 280 pixels\nHeight                                   : 720 pixels\nDisplay aspect ratio                     : 16:9\nFrame rate mode                          : Constant\nFrame rate                               : 24.000 fps\nColor space                              : YUV\nChroma subsampling                       : 4:2:0\nBit depth                                : 8 bits\nScan type                                : Progressive\nBits/(Pixel*Frame)                       : 0.221\nStream size                              : 1.46 GiB (94%)\nDefault                                  : Yes\nForced                                   : No\n\nAudio\nID                                       : 2\nFormat                                   : AC-3\nFormat/Info                              : Audio Coding 3\nMode extension                           : CM (complete main)\nFormat settings, Endianness              : Big\nCodec ID                                 : A_AC3\nDuration                                 : 42mn 38s\nBit rate mode                            : Constant\nBit rate                                 : 192 Kbps\nChannel(s)                               : 2 channels\nChannel positions                        : Front: L R\nSampling rate                            : 48.0 KHz\nBit depth                                : 16 bits\nCompression mode                         : Lossy\nStream size                              : 58.6 MiB (4%)\nDefault                                  : Yes\nForced                                   : No\n\nPlease help seed as much as possible!!! - inotyourdaddy {inyd}","torrent":{"xt":"urn:btih:ef67e4035181ea95ec0fb05be63e9df181c42753","amp;dn":"Little+People+Big+World+S12E05+720p+H264-AC3+%7Binyd%7D","amp;tr":["udp%3A%2F%2Ftracker.openbittorrent.com%3A80","udp%3A%2F%2Fopen.demonii.com%3A1337","udp%3A%2F%2Ftracker.coppersurfer.tk%3A6969","udp%3A%2F%2Fexodus.desync.com%3A6969"],"infoHash":"ef67e4035181ea95ec0fb05be63e9df181c42753","infoHashBuffer":{"type":"Buffer","data":[239,103,228,3,81,129,234,149,236,15,176,91,230,62,157,241,129,196,39,83]},"announce":[],"urlList":[]}}